<?xml version="1.0" encoding="UTF-8" standalone="no"?>
<!-- Generator: Adobe Illustrator 21.0.0, SVG Export Plug-In . SVG Version: 6.00 Build 0)  -->

<svg
   xmlns:dc="http://purl.org/dc/elements/1.1/"
   xmlns:cc="http://creativecommons.org/ns#"
   xmlns:rdf="http://www.w3.org/1999/02/22-rdf-syntax-ns#"
   xmlns:svg="http://www.w3.org/2000/svg"
   xmlns="http://www.w3.org/2000/svg"
   xmlns:sodipodi="http://sodipodi.sourceforge.net/DTD/sodipodi-0.dtd"
   xmlns:inkscape="http://www.inkscape.org/namespaces/inkscape"
   version="1.1"
   id="Layer_2"
   x="0px"
   y="0px"
   viewBox="0 0 100 100"
   style="enable-background:new 0 0 100 100;"
   xml:space="preserve"
   sodipodi:docname="accounts_nf.svg"
   inkscape:version="0.92.4 (5da689c313, 2019-01-14)"><metadata
   id="metadata855"><rdf:RDF><cc:Work
       rdf:about=""><dc:format>image/svg+xml</dc:format><dc:type
         rdf:resource="http://purl.org/dc/dcmitype/StillImage" /><dc:title></dc:title></cc:Work></rdf:RDF></metadata><defs
   id="defs853" /><sodipodi:namedview
   pagecolor="#ffffff"
   bordercolor="#666666"
   borderopacity="1"
   objecttolerance="10"
   gridtolerance="10"
   guidetolerance="10"
   inkscape:pageopacity="0"
   inkscape:pageshadow="2"
   inkscape:window-width="1682"
   inkscape:window-height="929"
   id="namedview851"
   showgrid="false"
   inkscape:zoom="7.6"
   inkscape:cx="50"
   inkscape:cy="50"
   inkscape:window-x="-8"
   inkscape:window-y="-8"
   inkscape:window-maximized="1"
   inkscape:current-layer="Layer_2" />
<g
   id="g848"
   style="fill:#66696c;fill-opacity:1">
	<path
   d="M87.1,3H13.7c-2.1,0-3.6,1.5-3.6,3.6v86c0,1.6,1.1,3,2.7,3.4c1.6,0.5,3.3-0.2,4.1-1.5l3.1-4.9l2.8,5.6c0.6,1.2,1.8,2,3.2,2   c0,0,0.1,0,0.1,0c1.4,0,2.6-0.7,3.2-1.9l3-5.4l2.7,5.3l0.1,0.2c0.7,1.1,1.9,1.7,3.2,1.7s2.5-0.6,3.2-1.7l3.1-5.5l2.7,5.3   c0.6,1.2,1.8,2,3.2,2c1.4,0,2.7-0.7,3.3-1.9l3-5.4l2.7,5.3l0.1,0.2c0.7,1.1,2,1.8,3.3,1.8c1.3,0,2.5-0.7,3.1-1.9l3-5.4l2.7,5.3   c0.6,1.2,1.8,2,3.2,2c1.4,0,2.7-0.7,3.4-1.9l3.1-5.7l2.9,4.9c0.9,1.4,2.5,2,4.2,1.6c1.6-0.4,2.7-1.8,2.7-3.4V6.5   C90.8,4.5,89.2,3,87.1,3z M85.8,87.7l-4.9-8.3l-6.1,11.2L69,79l-6.4,11.5L56.8,79l-6.4,11.5L44.7,79l-6.4,11.5L32.5,79l-6.4,11.5   l-5.6-11.2l-5.4,8.5V8h70.7V87.7z"
   id="path836"
   style="fill:#66696c;fill-opacity:1" />
	<path
   d="M46.4,19.1c0.4,0.3,0.8,0.5,1.2,0.7c0.5,0.2,0.9,0.4,1.4,0.5v3.4c-0.7,0-1.2-0.1-1.7-0.3c-0.5-0.1-0.9-0.2-1.1-0.4   l-0.9,2.2c0.4,0.2,0.8,0.3,1.5,0.4c0.6,0.1,1.4,0.2,2.2,0.2v1.6h2.3v-1.7c1.2-0.2,2.1-0.6,2.8-1.2c0.7-0.6,1-1.5,1-2.7   c0-0.6-0.1-1-0.3-1.4s-0.5-0.7-0.9-1s-0.8-0.5-1.2-0.7c-0.5-0.2-0.9-0.4-1.4-0.5v-3.1c0.5,0.1,0.9,0.1,1.3,0.2   c0.4,0.1,0.7,0.2,1,0.3l0.8-2.1c-0.4-0.2-0.9-0.3-1.3-0.4C52.6,13,52,13,51.3,12.9v-1.6H49V13c-1.2,0.2-2.1,0.5-2.8,1.1   c-0.7,0.6-1,1.4-1,2.5c0,0.6,0.1,1.1,0.3,1.5C45.8,18.5,46.1,18.8,46.4,19.1z M50.4,20.8c0.5,0.2,1,0.4,1.4,0.6   c0.4,0.2,0.5,0.5,0.5,0.9c0,0.4-0.1,0.8-0.4,1c-0.3,0.3-0.8,0.4-1.4,0.5V20.8z M48.3,15.9c0-0.2,0.1-0.3,0.3-0.4   c0.1-0.1,0.3-0.2,0.6-0.3c0.2-0.1,0.5-0.1,0.9-0.1v2.8c-0.5-0.2-0.9-0.4-1.3-0.6s-0.5-0.5-0.5-0.8C48.2,16.2,48.2,16,48.3,15.9z"
   id="path838"
   style="fill:#66696c;fill-opacity:1" />
	<path
   d="M28.2,38.3h45.3c1.4,0,2.5-1.1,2.5-2.5c0-1.4-1.1-2.5-2.5-2.5H28.2c-1.4,0-2.5,1.1-2.5,2.5C25.7,37.1,26.8,38.3,28.2,38.3z   "
   id="path840"
   style="fill:#66696c;fill-opacity:1" />
	<path
   d="M28.2,48.3h45.3c1.4,0,2.5-1.1,2.5-2.5c0-1.4-1.1-2.5-2.5-2.5H28.2c-1.4,0-2.5,1.1-2.5,2.5C25.7,47.1,26.8,48.3,28.2,48.3z   "
   id="path842"
   style="fill:#66696c;fill-opacity:1" />
	<path
   d="M28.2,58.3h45.3c1.4,0,2.5-1.1,2.5-2.5c0-1.4-1.1-2.5-2.5-2.5H28.2c-1.4,0-2.5,1.1-2.5,2.5C25.7,57.1,26.8,58.3,28.2,58.3z   "
   id="path844"
   style="fill:#66696c;fill-opacity:1" />
	<path
   d="M68.5,63.3H33.2c-1.4,0-2.5,1.1-2.5,2.5c0,1.4,1.1,2.5,2.5,2.5h35.3c1.4,0,2.5-1.1,2.5-2.5C71,64.4,69.9,63.3,68.5,63.3z"
   id="path846"
   style="fill:#66696c;fill-opacity:1" />
</g>
</svg>