<?xml version="1.0" encoding="UTF-8" standalone="no"?>
<!-- Generator: Adobe Illustrator 22.0.1, SVG Export Plug-In . SVG Version: 6.00 Build 0)  -->

<svg
   xmlns:dc="http://purl.org/dc/elements/1.1/"
   xmlns:cc="http://creativecommons.org/ns#"
   xmlns:rdf="http://www.w3.org/1999/02/22-rdf-syntax-ns#"
   xmlns:svg="http://www.w3.org/2000/svg"
   xmlns="http://www.w3.org/2000/svg"
   xmlns:sodipodi="http://sodipodi.sourceforge.net/DTD/sodipodi-0.dtd"
   xmlns:inkscape="http://www.inkscape.org/namespaces/inkscape"
   version="1.1"
   id="Layer_1"
   x="0px"
   y="0px"
   viewBox="0 0 100 100"
   style="enable-background:new 0 0 100 100;"
   xml:space="preserve"
   sodipodi:docname="holdings_nf.svg"
   inkscape:version="0.92.4 (5da689c313, 2019-01-14)"><metadata
   id="metadata1458"><rdf:RDF><cc:Work
       rdf:about=""><dc:format>image/svg+xml</dc:format><dc:type
         rdf:resource="http://purl.org/dc/dcmitype/StillImage" /><dc:title></dc:title></cc:Work></rdf:RDF></metadata><defs
   id="defs1456" /><sodipodi:namedview
   pagecolor="#ffffff"
   bordercolor="#666666"
   borderopacity="1"
   objecttolerance="10"
   gridtolerance="10"
   guidetolerance="10"
   inkscape:pageopacity="0"
   inkscape:pageshadow="2"
   inkscape:window-width="1682"
   inkscape:window-height="929"
   id="namedview1454"
   showgrid="false"
   inkscape:zoom="2.36"
   inkscape:cx="50"
   inkscape:cy="50"
   inkscape:window-x="-8"
   inkscape:window-y="-8"
   inkscape:window-maximized="1"
   inkscape:current-layer="Layer_1" />
<g
   id="g1451"
   style="fill:#66696c;fill-opacity:1">
	<path
   d="M94.1,91.4H8.6V5.9c0-1.5-1.2-2.8-2.8-2.8S3.1,4.4,3.1,5.9v91h91c1.5,0,2.8-1.2,2.8-2.8S95.6,91.4,94.1,91.4z"
   id="path1447"
   style="fill:#66696c;fill-opacity:1" />
	<path
   d="M21.4,71.6h21.3l12.5-12.5h22.4l12.2-12.2v12.4c0,1.5,1.2,2.8,2.8,2.8s2.8-1.2,2.8-2.8V41.4c0-2.6-2.1-4.8-4.8-4.8H73   c-1.5,0-2.8,1.2-2.8,2.8s1.2,2.8,2.8,2.8h13.8L75.4,53.6H53L40.5,66.1H21.4c-1.5,0-2.8,1.2-2.8,2.8S19.9,71.6,21.4,71.6z"
   id="path1449"
   style="fill:#66696c;fill-opacity:1" />
</g>
</svg>