<?xml version="1.0" encoding="UTF-8" standalone="no"?>
<!-- Generator: Adobe Illustrator 22.0.0, SVG Export Plug-In . SVG Version: 6.00 Build 0)  -->

<svg
   xmlns:dc="http://purl.org/dc/elements/1.1/"
   xmlns:cc="http://creativecommons.org/ns#"
   xmlns:rdf="http://www.w3.org/1999/02/22-rdf-syntax-ns#"
   xmlns:svg="http://www.w3.org/2000/svg"
   xmlns="http://www.w3.org/2000/svg"
   xmlns:sodipodi="http://sodipodi.sourceforge.net/DTD/sodipodi-0.dtd"
   xmlns:inkscape="http://www.inkscape.org/namespaces/inkscape"
   version="1.1"
   id="Layer_1"
   x="0px"
   y="0px"
   viewBox="0 0 100 100"
   style="enable-background:new 0 0 100 100;"
   xml:space="preserve"
   sodipodi:docname="categories_nf.svg"
   inkscape:version="0.92.4 (5da689c313, 2019-01-14)"><metadata
   id="metadata889"><rdf:RDF><cc:Work
       rdf:about=""><dc:format>image/svg+xml</dc:format><dc:type
         rdf:resource="http://purl.org/dc/dcmitype/StillImage" /><dc:title></dc:title></cc:Work></rdf:RDF></metadata><defs
   id="defs887" /><sodipodi:namedview
   pagecolor="#ffffff"
   bordercolor="#666666"
   borderopacity="1"
   objecttolerance="10"
   gridtolerance="10"
   guidetolerance="10"
   inkscape:pageopacity="0"
   inkscape:pageshadow="2"
   inkscape:window-width="1682"
   inkscape:window-height="929"
   id="namedview885"
   showgrid="false"
   inkscape:zoom="2.36"
   inkscape:cx="50"
   inkscape:cy="50"
   inkscape:window-x="-8"
   inkscape:window-y="-8"
   inkscape:window-maximized="1"
   inkscape:current-layer="Layer_1" />
<g
   id="g882"
   style="fill:#66696c;fill-opacity:1">
	<path
   d="M9.4,43h31c1.4,0,2.5-1.1,2.5-2.5v-31c0-1.4-1.1-2.5-2.5-2.5h-31C8.1,7,6.9,8.1,6.9,9.5v31C6.9,41.9,8,43,9.4,43z M11.9,12   h26v26h-26V12z"
   id="path874"
   style="fill:#66696c;fill-opacity:1" />
	<path
   d="M59.4,43h31c1.4,0,2.5-1.1,2.5-2.5v-31c0-1.4-1.2-2.5-2.5-2.5h-31c-1.4,0-2.5,1.1-2.5,2.5v31C56.9,41.9,58,43,59.4,43z    M61.9,12h26v26h-26V12z"
   id="path876"
   style="fill:#66696c;fill-opacity:1" />
	<path
   d="M40.5,57h-31C8.1,57,7,58.1,7,59.5v31C7,91.9,8.1,93,9.5,93h31c1.4,0,2.5-1.1,2.5-2.5v-31C43,58.1,41.9,57,40.5,57z M38,88   H12V62h26V88z"
   id="path878"
   style="fill:#66696c;fill-opacity:1" />
	<path
   d="M90.5,57h-31c-1.4,0-2.5,1.1-2.5,2.5v31c0,1.4,1.1,2.5,2.5,2.5h31c1.4,0,2.5-1.1,2.5-2.5v-31C93,58.1,91.8,57,90.5,57z    M88,88H62V62h26V88z"
   id="path880"
   style="fill:#66696c;fill-opacity:1" />
</g>
</svg>