<?xml version="1.0" encoding="utf-8"?>
<!-- Generator: Adobe Illustrator 22.0.0, SVG Export Plug-In . SVG Version: 6.00 Build 0)  -->
<svg version="1.1" id="Layer_1" xmlns="http://www.w3.org/2000/svg" xmlns:xlink="http://www.w3.org/1999/xlink" x="0px" y="0px"
	 viewBox="0 0 100 100" style="enable-background:new 0 0 100 100;" xml:space="preserve">
<g>
	<path d="M9.4,43h31c1.4,0,2.5-1.1,2.5-2.5v-31c0-1.4-1.1-2.5-2.5-2.5h-31C8.1,7,6.9,8.1,6.9,9.5v31C6.9,41.9,8,43,9.4,43z M11.9,12
		h26v26h-26V12z"/>
	<path d="M59.4,43h31c1.4,0,2.5-1.1,2.5-2.5v-31c0-1.4-1.2-2.5-2.5-2.5h-31c-1.4,0-2.5,1.1-2.5,2.5v31C56.9,41.9,58,43,59.4,43z
		 M61.9,12h26v26h-26V12z"/>
	<path d="M40.5,57h-31C8.1,57,7,58.1,7,59.5v31C7,91.9,8.1,93,9.5,93h31c1.4,0,2.5-1.1,2.5-2.5v-31C43,58.1,41.9,57,40.5,57z M38,88
		H12V62h26V88z"/>
	<path d="M90.5,57h-31c-1.4,0-2.5,1.1-2.5,2.5v31c0,1.4,1.1,2.5,2.5,2.5h31c1.4,0,2.5-1.1,2.5-2.5v-31C93,58.1,91.8,57,90.5,57z
		 M88,88H62V62h26V88z"/>
</g>
</svg>
