<?xml version="1.0" encoding="utf-8"?>
<!-- Generator: Adobe Illustrator 19.0.0, SVG Export Plug-In . SVG Version: 6.00 Build 0)  -->
<svg version="1.1" id="Layer_1" xmlns="http://www.w3.org/2000/svg" xmlns:xlink="http://www.w3.org/1999/xlink" x="0px" y="0px"
	 width="100px" height="100px" viewBox="-345 257 100 100" style="enable-background:new -345 257 100 100;" xml:space="preserve">
<g>
	<path d="M-284.8,315.5l-7.6,7.7v-50.6c0-1.4-1.1-2.5-2.5-2.5c-1.6,0-2.7,1.1-2.7,2.5v50.6l-7.6-7.7c-1-1-2.6-1-3.5,0
		c-1,1-1,2.6,0,3.5l13,12.9c0.4,0.4,1,0.4,1.4,0l13-12.9c1-1,1-2.6,0-3.5C-282.3,314.5-283.9,314.5-284.8,315.5z"/>
	<path d="M-247.3,317h-15.5c-1.4,0-2.5,1.1-2.5,2.5s1.1,2.5,2.5,2.5h12.5v16.9h-89.4V322h12.5c1.4,0,2.5-1.1,2.5-2.5
		s-1.1-2.5-2.5-2.5h-15.5c-1.1,0-2,0.9-2,2v22.4c0,1.4,1.1,2.5,2.5,2.5h94.4c1.4,0,2.5-1.1,2.5-2.5V319
		C-245.3,318-246.2,317-247.3,317z"/>
</g>
</svg>
