<?xml version="1.0" encoding="UTF-8" standalone="no"?>
<!-- Generator: Adobe Illustrator 19.0.0, SVG Export Plug-In . SVG Version: 6.00 Build 0)  -->

<svg
   xmlns:dc="http://purl.org/dc/elements/1.1/"
   xmlns:cc="http://creativecommons.org/ns#"
   xmlns:rdf="http://www.w3.org/1999/02/22-rdf-syntax-ns#"
   xmlns:svg="http://www.w3.org/2000/svg"
   xmlns="http://www.w3.org/2000/svg"
   xmlns:sodipodi="http://sodipodi.sourceforge.net/DTD/sodipodi-0.dtd"
   xmlns:inkscape="http://www.inkscape.org/namespaces/inkscape"
   version="1.1"
   id="Layer_1"
   x="0px"
   y="0px"
   width="100px"
   height="100px"
   viewBox="-345 257 100 100"
   style="enable-background:new -345 257 100 100;"
   xml:space="preserve"
   sodipodi:docname="import_nf.svg"
   inkscape:version="0.92.4 (5da689c313, 2019-01-14)"><metadata
   id="metadata2027"><rdf:RDF><cc:Work
       rdf:about=""><dc:format>image/svg+xml</dc:format><dc:type
         rdf:resource="http://purl.org/dc/dcmitype/StillImage" /><dc:title></dc:title></cc:Work></rdf:RDF></metadata><defs
   id="defs2025" /><sodipodi:namedview
   pagecolor="#ffffff"
   bordercolor="#666666"
   borderopacity="1"
   objecttolerance="10"
   gridtolerance="10"
   guidetolerance="10"
   inkscape:pageopacity="0"
   inkscape:pageshadow="2"
   inkscape:window-width="716"
   inkscape:window-height="480"
   id="namedview2023"
   showgrid="false"
   inkscape:zoom="2.36"
   inkscape:cx="50"
   inkscape:cy="50"
   inkscape:window-x="-8"
   inkscape:window-y="-8"
   inkscape:window-maximized="1"
   inkscape:current-layer="Layer_1" />
<g
   id="g2020"
   style="fill:#66696c;fill-opacity:1">
	<path
   d="M-284.8,315.5l-7.6,7.7v-50.6c0-1.4-1.1-2.5-2.5-2.5c-1.6,0-2.7,1.1-2.7,2.5v50.6l-7.6-7.7c-1-1-2.6-1-3.5,0   c-1,1-1,2.6,0,3.5l13,12.9c0.4,0.4,1,0.4,1.4,0l13-12.9c1-1,1-2.6,0-3.5C-282.3,314.5-283.9,314.5-284.8,315.5z"
   id="path2016"
   style="fill:#66696c;fill-opacity:1" />
	<path
   d="M-247.3,317h-15.5c-1.4,0-2.5,1.1-2.5,2.5s1.1,2.5,2.5,2.5h12.5v16.9h-89.4V322h12.5c1.4,0,2.5-1.1,2.5-2.5   s-1.1-2.5-2.5-2.5h-15.5c-1.1,0-2,0.9-2,2v22.4c0,1.4,1.1,2.5,2.5,2.5h94.4c1.4,0,2.5-1.1,2.5-2.5V319   C-245.3,318-246.2,317-247.3,317z"
   id="path2018"
   style="fill:#66696c;fill-opacity:1" />
</g>
</svg>