<?xml version="1.0" encoding="UTF-8" standalone="no"?>
<!-- Generator: Adobe Illustrator 21.0.0, SVG Export Plug-In . SVG Version: 6.00 Build 0)  -->

<svg
   xmlns:dc="http://purl.org/dc/elements/1.1/"
   xmlns:cc="http://creativecommons.org/ns#"
   xmlns:rdf="http://www.w3.org/1999/02/22-rdf-syntax-ns#"
   xmlns:svg="http://www.w3.org/2000/svg"
   xmlns="http://www.w3.org/2000/svg"
   xmlns:sodipodi="http://sodipodi.sourceforge.net/DTD/sodipodi-0.dtd"
   xmlns:inkscape="http://www.inkscape.org/namespaces/inkscape"
   version="1.1"
   id="Layer_2"
   x="0px"
   y="0px"
   viewBox="0 0 100 100"
   style="enable-background:new 0 0 100 100;"
   xml:space="preserve"
   sodipodi:docname="income_nf.svg"
   inkscape:version="0.92.4 (5da689c313, 2019-01-14)"><metadata
   id="metadata2588"><rdf:RDF><cc:Work
       rdf:about=""><dc:format>image/svg+xml</dc:format><dc:type
         rdf:resource="http://purl.org/dc/dcmitype/StillImage" /><dc:title></dc:title></cc:Work></rdf:RDF></metadata><defs
   id="defs2586" /><sodipodi:namedview
   pagecolor="#ffffff"
   bordercolor="#666666"
   borderopacity="1"
   objecttolerance="10"
   gridtolerance="10"
   guidetolerance="10"
   inkscape:pageopacity="0"
   inkscape:pageshadow="2"
   inkscape:window-width="716"
   inkscape:window-height="480"
   id="namedview2584"
   showgrid="false"
   inkscape:zoom="2.36"
   inkscape:cx="50"
   inkscape:cy="50"
   inkscape:window-x="0"
   inkscape:window-y="0"
   inkscape:window-maximized="0"
   inkscape:current-layer="Layer_2" />
<path
   d="M84.6,25.4V7.5c0-1.4-1.4-2.5-2.7-2.1l-75.6,20h0c-1.2,0-2.2,1-2.2,2.2v65c0,1.2,1,2.2,2.2,2.2h88.3c1.2,0,2.2-1,2.2-2.2  v-65c0-1.2-1-2.2-2.2-2.2H84.6z M79.6,11.2v14.2H25.8L79.6,11.2z M91.7,89.7H9.1V30.4h82.6v15H71.4c-8.5,0-15.3,6.9-15.3,15.3  c0,8.4,6.9,15.2,15.3,15.2h20.3V89.7z M91.7,70.9H71.4c-5.8,0-10.3-4.5-10.3-10.2c0-5.7,4.6-10.3,10.3-10.3h20.3V70.9z"
   id="path2581"
   style="stroke:none;stroke-opacity:1;fill:#66696c;fill-opacity:1" />
</svg>