<?xml version="1.0" encoding="utf-8"?>
<!-- Generator: Adobe Illustrator 21.0.0, SVG Export Plug-In . SVG Version: 6.00 Build 0)  -->
<svg version="1.1" id="Layer_2" xmlns="http://www.w3.org/2000/svg" xmlns:xlink="http://www.w3.org/1999/xlink" x="0px" y="0px"
	 viewBox="0 0 100 100" style="enable-background:new 0 0 100 100;" xml:space="preserve">
<path d="M84.6,25.4V7.5c0-1.4-1.4-2.5-2.7-2.1l-75.6,20h0c-1.2,0-2.2,1-2.2,2.2v65c0,1.2,1,2.2,2.2,2.2h88.3c1.2,0,2.2-1,2.2-2.2
	v-65c0-1.2-1-2.2-2.2-2.2H84.6z M79.6,11.2v14.2H25.8L79.6,11.2z M91.7,89.7H9.1V30.4h82.6v15H71.4c-8.5,0-15.3,6.9-15.3,15.3
	c0,8.4,6.9,15.2,15.3,15.2h20.3V89.7z M91.7,70.9H71.4c-5.8,0-10.3-4.5-10.3-10.2c0-5.7,4.6-10.3,10.3-10.3h20.3V70.9z"/>
</svg>
