<?xml version="1.0" encoding="utf-8"?>
<!-- Generator: Adobe Illustrator 21.0.0, SVG Export Plug-In . SVG Version: 6.00 Build 0)  -->
<svg version="1.1" id="Layer_2" xmlns="http://www.w3.org/2000/svg" xmlns:xlink="http://www.w3.org/1999/xlink" x="0px" y="0px"
	 viewBox="0 0 100 100" style="enable-background:new 0 0 100 100;" xml:space="preserve">
<g>
	<path d="M52.5,7.7V5.7H54c1.4,0,2.5-1.1,2.5-2.5S55.4,0.7,54,0.7h-8c-1.4,0-2.5,1.1-2.5,2.5s1.1,2.5,2.5,2.5h1.5v2.1
		C22.6,9.1,2.8,30.5,4.2,56c1.2,22.8,19.5,41.5,42.2,43.2c26.9,2,49.4-19.3,49.4-45.7C95.8,29.1,76.6,9,52.5,7.7z M50,94.3
		C27.5,94.3,9.2,76,9.2,53.5S27.5,12.7,50,12.7S90.8,31,90.8,53.5S72.5,94.3,50,94.3z"/>
	<path d="M78.5,55.2h-26v-28c0-1.4-1.1-2.5-2.5-2.5s-2.5,1.1-2.5,2.5v28h-1c-1.4,0-2.5,1.1-2.5,2.5s1.1,2.5,2.5,2.5h1v1
		c0,1.4,1.1,2.5,2.5,2.5s2.5-1.1,2.5-2.5v-1h26c1.4,0,2.5-1.1,2.5-2.5S79.9,55.2,78.5,55.2z"/>
</g>
</svg>
