<?xml version="1.0" encoding="UTF-8" standalone="no"?>
<!-- Generator: Adobe Illustrator 21.0.0, SVG Export Plug-In . SVG Version: 6.00 Build 0)  -->

<svg
   xmlns:dc="http://purl.org/dc/elements/1.1/"
   xmlns:cc="http://creativecommons.org/ns#"
   xmlns:rdf="http://www.w3.org/1999/02/22-rdf-syntax-ns#"
   xmlns:svg="http://www.w3.org/2000/svg"
   xmlns="http://www.w3.org/2000/svg"
   xmlns:sodipodi="http://sodipodi.sourceforge.net/DTD/sodipodi-0.dtd"
   xmlns:inkscape="http://www.inkscape.org/namespaces/inkscape"
   version="1.1"
   id="Layer_2"
   x="0px"
   y="0px"
   viewBox="0 0 100 100"
   style="enable-background:new 0 0 100 100;"
   xml:space="preserve"
   sodipodi:docname="pension_f.svg"
   inkscape:version="0.92.4 (5da689c313, 2019-01-14)"><metadata
   id="metadata3157"><rdf:RDF><cc:Work
       rdf:about=""><dc:format>image/svg+xml</dc:format><dc:type
         rdf:resource="http://purl.org/dc/dcmitype/StillImage" /><dc:title></dc:title></cc:Work></rdf:RDF></metadata><defs
   id="defs3155" /><sodipodi:namedview
   pagecolor="#ffffff"
   bordercolor="#666666"
   borderopacity="1"
   objecttolerance="10"
   gridtolerance="10"
   guidetolerance="10"
   inkscape:pageopacity="0"
   inkscape:pageshadow="2"
   inkscape:window-width="716"
   inkscape:window-height="480"
   id="namedview3153"
   showgrid="false"
   inkscape:zoom="2.36"
   inkscape:cx="50"
   inkscape:cy="50"
   inkscape:window-x="0"
   inkscape:window-y="0"
   inkscape:window-maximized="0"
   inkscape:current-layer="Layer_2" />
<g
   id="g3150"
   style="fill:#438baf;fill-opacity:1">
	<path
   d="M52.5,7.7V5.7H54c1.4,0,2.5-1.1,2.5-2.5S55.4,0.7,54,0.7h-8c-1.4,0-2.5,1.1-2.5,2.5s1.1,2.5,2.5,2.5h1.5v2.1   C22.6,9.1,2.8,30.5,4.2,56c1.2,22.8,19.5,41.5,42.2,43.2c26.9,2,49.4-19.3,49.4-45.7C95.8,29.1,76.6,9,52.5,7.7z M50,94.3   C27.5,94.3,9.2,76,9.2,53.5S27.5,12.7,50,12.7S90.8,31,90.8,53.5S72.5,94.3,50,94.3z"
   id="path3146"
   style="fill:#438baf;fill-opacity:1" />
	<path
   d="M78.5,55.2h-26v-28c0-1.4-1.1-2.5-2.5-2.5s-2.5,1.1-2.5,2.5v28h-1c-1.4,0-2.5,1.1-2.5,2.5s1.1,2.5,2.5,2.5h1v1   c0,1.4,1.1,2.5,2.5,2.5s2.5-1.1,2.5-2.5v-1h26c1.4,0,2.5-1.1,2.5-2.5S79.9,55.2,78.5,55.2z"
   id="path3148"
   style="fill:#438baf;fill-opacity:1" />
</g>
</svg>