<?xml version="1.0" encoding="utf-8"?>
<!-- Generator: Adobe Illustrator 19.0.0, SVG Export Plug-In . SVG Version: 6.00 Build 0)  -->
<svg version="1.1" id="Layer_2" xmlns="http://www.w3.org/2000/svg" xmlns:xlink="http://www.w3.org/1999/xlink" x="0px" y="0px"
	 width="100px" height="100px" viewBox="-249 151 100 100" style="enable-background:new -249 151 100 100;" xml:space="preserve">
<path d="M-155,198h-41.5v-41.5c0-1.4-1.1-2.5-2.5-2.5l0,0c-1.4,0-2.5,1.1-2.5,2.5V198H-243c-1.4,0-2.5,1.1-2.5,2.5l0,0
	c0,1.4,1.1,2.5,2.5,2.5h41.5v41.5c0,1.4,1.1,2.5,2.5,2.5l0,0c1.4,0,2.5-1.1,2.5-2.5V203h41.5c1.4,0,2.5-1.1,2.5-2.5l0,0
	C-152.5,199.1-153.6,198-155,198z"/>
</svg>
