<?xml version="1.0" encoding="utf-8"?>
<!-- Generator: Adobe Illustrator 19.0.0, SVG Export Plug-In . SVG Version: 6.00 Build 0)  -->
<svg version="1.1" id="Layer_1" xmlns="http://www.w3.org/2000/svg" xmlns:xlink="http://www.w3.org/1999/xlink" x="0px" y="0px"
	 width="100px" height="100px" viewBox="0 0 100 100" style="enable-background:new 0 0 100 100;" xml:space="preserve">
<path id="XMLID_14_" d="M78.1,1.8L13.8,66L1.7,98.2L33.8,86l64.2-64.2c0.8-0.8,0.8-2,0-2.8L80.9,1.8C80.1,1,78.8,1,78.1,1.8z
	 M92.4,20.4L75.5,37.3L62.5,24.4L79.5,7.5L92.4,20.4z M17,71.9l1.4,1.4c1,1,2.6,1,3.5,0h0c1-1,1-2.6,0-3.5l-2.4-2.4L59,27.9
	l12.9,12.9L32.5,80.3L30.1,78c-1-1-2.6-1-3.5,0h0c-1,1-1,2.6,0,3.5l1.4,1.4l-17.7,6.7L17,71.9z"/>
</svg>
