<?xml version="1.0" encoding="UTF-8" standalone="no"?>
<!-- Generator: Adobe Illustrator 19.0.0, SVG Export Plug-In . SVG Version: 6.00 Build 0)  -->

<svg
   xmlns:dc="http://purl.org/dc/elements/1.1/"
   xmlns:cc="http://creativecommons.org/ns#"
   xmlns:rdf="http://www.w3.org/1999/02/22-rdf-syntax-ns#"
   xmlns:svg="http://www.w3.org/2000/svg"
   xmlns="http://www.w3.org/2000/svg"
   xmlns:sodipodi="http://sodipodi.sourceforge.net/DTD/sodipodi-0.dtd"
   xmlns:inkscape="http://www.inkscape.org/namespaces/inkscape"
   version="1.1"
   id="Layer_1"
   x="0px"
   y="0px"
   width="100px"
   height="100px"
   viewBox="0 0 100 100"
   style="enable-background:new 0 0 100 100;"
   xml:space="preserve"
   sodipodi:docname="edit_d.svg"
   inkscape:version="0.92.4 (5da689c313, 2019-01-14)"><metadata
   id="metadata847"><rdf:RDF><cc:Work
       rdf:about=""><dc:format>image/svg+xml</dc:format><dc:type
         rdf:resource="http://purl.org/dc/dcmitype/StillImage" /><dc:title /></cc:Work></rdf:RDF></metadata><defs
   id="defs845" /><sodipodi:namedview
   pagecolor="#ffffff"
   bordercolor="#666666"
   borderopacity="1"
   objecttolerance="10"
   gridtolerance="10"
   guidetolerance="10"
   inkscape:pageopacity="0"
   inkscape:pageshadow="2"
   inkscape:window-width="1920"
   inkscape:window-height="1137"
   id="namedview843"
   showgrid="false"
   inkscape:zoom="2.36"
   inkscape:cx="-42.584746"
   inkscape:cy="50"
   inkscape:window-x="1912"
   inkscape:window-y="-8"
   inkscape:window-maximized="1"
   inkscape:current-layer="Layer_1" />
<path
   id="XMLID_14_"
   d="M78.1,1.8L13.8,66L1.7,98.2L33.8,86l64.2-64.2c0.8-0.8,0.8-2,0-2.8L80.9,1.8C80.1,1,78.8,1,78.1,1.8z   M92.4,20.4L75.5,37.3L62.5,24.4L79.5,7.5L92.4,20.4z M17,71.9l1.4,1.4c1,1,2.6,1,3.5,0h0c1-1,1-2.6,0-3.5l-2.4-2.4L59,27.9  l12.9,12.9L32.5,80.3L30.1,78c-1-1-2.6-1-3.5,0h0c-1,1-1,2.6,0,3.5l1.4,1.4l-17.7,6.7L17,71.9z"
   style="fill:#d2d2d2;fill-opacity:1" />
</svg>