<?xml version="1.0" encoding="utf-8"?>
<!-- Generator: Adobe Illustrator 19.0.0, SVG Export Plug-In . SVG Version: 6.00 Build 0)  -->
<svg version="1.1" id="Layer_2" xmlns="http://www.w3.org/2000/svg" xmlns:xlink="http://www.w3.org/1999/xlink" x="0px" y="0px"
	 width="100px" height="100px" viewBox="-256 379.9 100 100" style="enable-background:new -256 379.9 100 100;"
	 xml:space="preserve">
<g>
	<path d="M-240.8,415.3c-8.1,0-14.6,6.6-14.6,14.6c0,8.1,6.6,14.6,14.6,14.6c4,0,7.7-1.6,10.5-4.4c2.7-2.8,4.2-6.4,4.1-10.2
		C-226.2,421.8-232.8,415.3-240.8,415.3z M-233.9,436.6c-1.8,1.9-4.3,2.9-6.9,2.9c-5.3,0-9.6-4.3-9.6-9.6c0-5.3,4.3-9.6,9.6-9.6
		s9.6,4.3,9.6,9.7C-231.2,432.4-232.1,434.8-233.9,436.6z"/>
	<path d="M-206.1,415.3c-8.1,0-14.6,6.6-14.6,14.6c0,8.1,6.6,14.6,14.6,14.6c4,0,7.7-1.6,10.5-4.4c2.7-2.8,4.2-6.4,4.1-10.2
		C-191.5,421.8-198,415.3-206.1,415.3z M-199.2,436.6c-1.8,1.9-4.3,2.9-6.9,2.9c-5.3,0-9.6-4.3-9.6-9.6c0-5.3,4.3-9.6,9.6-9.6
		s9.6,4.3,9.6,9.7C-196.4,432.4-197.4,434.8-199.2,436.6z"/>
	<path d="M-171.4,415.3c-8.1,0-14.6,6.6-14.6,14.6c0,8.1,6.6,14.6,14.6,14.6c4,0,7.7-1.6,10.5-4.4c2.7-2.8,4.2-6.4,4.1-10.2
		C-156.7,421.8-163.3,415.3-171.4,415.3z M-164.4,436.6c-1.8,1.9-4.3,2.9-6.9,2.9c-5.3,0-9.6-4.3-9.6-9.6c0-5.3,4.3-9.6,9.6-9.6
		s9.6,4.3,9.6,9.7C-161.7,432.4-162.7,434.8-164.4,436.6z"/>
</g>
</svg>
