<?xml version="1.0" encoding="utf-8"?>
<!-- Generator: Adobe Illustrator 21.0.0, SVG Export Plug-In . SVG Version: 6.00 Build 0)  -->
<svg version="1.1" id="Layer_1" xmlns="http://www.w3.org/2000/svg" xmlns:xlink="http://www.w3.org/1999/xlink" x="0px" y="0px"
	 viewBox="0 0 100 100" style="enable-background:new 0 0 100 100;" xml:space="preserve">
<g>
	<path d="M50,0.8C22.8,0.8,0.7,22.9,0.7,50.1C0.8,77.3,22.9,99.3,50,99.3c27.2,0,49.3-22,49.3-49.2C99.3,22.9,77.2,0.8,50,0.8z
		 M50,94.3c-24.4,0-44.2-19.8-44.2-44.2C5.8,25.7,25.6,5.8,50,5.8c24.4,0,44.3,19.9,44.3,44.3C94.3,74.5,74.4,94.3,50,94.3z"/>
	<path d="M69.2,32.5L39.4,62.3l-8.7-8.7c-1-1-2.6-1-3.5,0c-0.9,1-1,2.6,0,3.6l10.7,10.7c0.8,0.8,2,0.8,2.8,0l32-31.9
		c1-1,1-2.6,0-3.5S70.1,31.5,69.2,32.5z"/>
</g>
</svg>
