<?xml version="1.0" encoding="UTF-8" standalone="no"?>
<svg
   xmlns:dc="http://purl.org/dc/elements/1.1/"
   xmlns:cc="http://creativecommons.org/ns#"
   xmlns:rdf="http://www.w3.org/1999/02/22-rdf-syntax-ns#"
   xmlns:svg="http://www.w3.org/2000/svg"
   xmlns="http://www.w3.org/2000/svg"
   xmlns:sodipodi="http://sodipodi.sourceforge.net/DTD/sodipodi-0.dtd"
   xmlns:inkscape="http://www.inkscape.org/namespaces/inkscape"
   enable-background="new 0 0 48 48"
   height="48px"
   version="1.1"
   viewBox="0 0 48 48"
   width="48px"
   xml:space="preserve"
   id="svg877"
   sodipodi:docname="settings_d.svg"
   inkscape:version="0.92.4 (5da689c313, 2019-01-14)"><metadata
     id="metadata883"><rdf:RDF><cc:Work
         rdf:about=""><dc:format>image/svg+xml</dc:format><dc:type
           rdf:resource="http://purl.org/dc/dcmitype/StillImage" /><dc:title></dc:title></cc:Work></rdf:RDF></metadata><defs
     id="defs881" /><sodipodi:namedview
     pagecolor="#ffffff"
     bordercolor="#666666"
     borderopacity="1"
     objecttolerance="10"
     gridtolerance="10"
     guidetolerance="10"
     inkscape:pageopacity="0"
     inkscape:pageshadow="2"
     inkscape:window-width="1682"
     inkscape:window-height="929"
     id="namedview879"
     showgrid="false"
     inkscape:zoom="15.833333"
     inkscape:cx="24"
     inkscape:cy="24"
     inkscape:window-x="-8"
     inkscape:window-y="-8"
     inkscape:window-maximized="1"
     inkscape:current-layer="svg877" /><g
     id="Expanded"
     style="fill:#d2d2d2;fill-opacity:1"><g
       id="g874"
       style="fill:#d2d2d2;fill-opacity:1"><g
         id="g852"
         style="fill:#d2d2d2;fill-opacity:1"><path
           d="M11.003,46L11.003,46c-1.217,0-2.4-0.239-3.517-0.712c-0.307-0.13-0.528-0.403-0.592-0.729s0.039-0.663,0.274-0.898     l3.535-3.534v-2.829H7.875L4.34,40.832c-0.235,0.235-0.57,0.34-0.898,0.274c-0.326-0.063-0.6-0.285-0.729-0.592     c-1.437-3.396-0.683-7.271,1.92-9.874c1.697-1.698,3.955-2.633,6.357-2.633c0.987,0,1.952,0.157,2.876,0.469l14.603-14.603     c-1.092-3.233-0.278-6.793,2.163-9.234c1.698-1.697,3.956-2.632,6.358-2.632c1.217,0,2.4,0.239,3.517,0.712     c0.307,0.13,0.528,0.403,0.592,0.729s-0.039,0.663-0.274,0.898L37.29,7.882v2.829h2.829l3.534-3.535     c0.235-0.235,0.568-0.34,0.898-0.274c0.326,0.063,0.6,0.285,0.729,0.592c1.437,3.396,0.683,7.271-1.92,9.874     C41.663,19.065,39.405,20,37.003,20c-0.987,0-1.952-0.157-2.876-0.469L19.524,34.134c1.092,3.233,0.277,6.793-2.164,9.234     C15.663,45.065,13.405,46,11.003,46z M9.766,43.892C10.171,43.964,10.584,44,11.003,44c1.868,0,3.623-0.727,4.943-2.046     c2.025-2.024,2.611-5.04,1.493-7.681c-0.159-0.375-0.074-0.809,0.214-1.097L33.169,17.66c0.289-0.288,0.724-0.374,1.097-0.214     C35.135,17.813,36.056,18,37.003,18c1.868,0,3.623-0.727,4.943-2.047c1.649-1.649,2.344-3.956,1.94-6.183l-2.647,2.647     c-0.188,0.188-0.442,0.293-0.707,0.293H36.29c-0.552,0-1-0.447-1-1V7.468c0-0.266,0.105-0.52,0.293-0.707l2.646-2.645     c-0.406-0.072-0.819-0.108-1.238-0.108c-1.868,0-3.624,0.727-4.944,2.046c-2.024,2.025-2.61,5.04-1.492,7.681     c0.159,0.375,0.074,0.809-0.214,1.097L14.824,30.348c-0.288,0.288-0.723,0.373-1.097,0.214c-0.869-0.367-1.79-0.554-2.737-0.554     c-1.868,0-3.624,0.727-4.943,2.047c-1.649,1.649-2.344,3.956-1.94,6.183l2.647-2.647c0.188-0.188,0.442-0.293,0.707-0.293h4.243     c0.552,0,1,0.447,1,1v4.243c0,0.266-0.105,0.52-0.293,0.707L9.766,43.892z"
           id="path850"
           style="fill:#d2d2d2;fill-opacity:1" /></g><g
         id="g856"
         style="fill:#d2d2d2;fill-opacity:1"><path
           d="M42,46c-1.068,0-2.073-0.416-2.829-1.172l-9.192-9.193c-0.391-0.391-0.391-1.023,0-1.414l4.242-4.242     c0.391-0.391,1.023-0.391,1.414,0l9.193,9.193C45.584,39.927,46,40.932,46,42c0,1.069-0.417,2.074-1.172,2.829     C44.073,45.584,43.069,46,42,46z M32.101,34.928l8.485,8.486c0.755,0.755,2.072,0.756,2.828,0C43.792,43.036,44,42.534,44,42     s-0.208-1.037-0.585-1.414L34.929,32.1L32.101,34.928z"
           id="path854"
           style="fill:#d2d2d2;fill-opacity:1" /></g><g
         id="g860"
         style="fill:#d2d2d2;fill-opacity:1"><rect
           height="2"
           transform="matrix(0.7071 0.7071 -0.7071 0.7071 15.776 -6.535)"
           width="16.137"
           x="7.708"
           y="14.776"
           id="rect858"
           style="fill:#d2d2d2;fill-opacity:1" /></g><g
         id="g864"
         style="fill:#d2d2d2;fill-opacity:1"><path
           d="M28.564,38.05c-0.256,0-0.512-0.098-0.707-0.293c-0.391-0.391-0.391-1.023,0-1.414l8.485-8.485     c0.391-0.391,1.023-0.391,1.414,0s0.391,1.023,0,1.414l-8.485,8.485C29.076,37.952,28.82,38.05,28.564,38.05z"
           id="path862"
           style="fill:#d2d2d2;fill-opacity:1" /></g><g
         id="g868"
         style="fill:#d2d2d2;fill-opacity:1"><path
           d="M8.657,12.485c-0.256,0-0.512-0.098-0.707-0.293L2.293,6.535C2.105,6.348,2,6.094,2,5.828s0.105-0.52,0.293-0.707     l2.828-2.828c0.391-0.391,1.023-0.391,1.414,0l5.657,5.657c0.188,0.188,0.293,0.441,0.293,0.707s-0.105,0.52-0.293,0.707     l-2.828,2.828C9.169,12.388,8.913,12.485,8.657,12.485z M4.414,5.828l4.243,4.243l1.414-1.414L5.828,4.414L4.414,5.828z"
           id="path866"
           style="fill:#d2d2d2;fill-opacity:1" /></g><g
         id="g872"
         style="fill:#d2d2d2;fill-opacity:1"><rect
           height="2"
           transform="matrix(0.7071 0.7071 -0.7071 0.7071 29.3955 -12.1756)"
           width="10.381"
           x="24.204"
           y="28.394"
           id="rect870"
           style="fill:#d2d2d2;fill-opacity:1" /></g></g></g></svg>