<?xml version="1.0" encoding="utf-8"?>
<!-- Generator: Adobe Illustrator 21.0.0, SVG Export Plug-In . SVG Version: 6.00 Build 0)  -->
<svg version="1.1" id="Layer_2" xmlns="http://www.w3.org/2000/svg" xmlns:xlink="http://www.w3.org/1999/xlink" x="0px" y="0px"
	 viewBox="0 0 100 100" style="enable-background:new 0 0 100 100;" xml:space="preserve">
<g>
	<path d="M13.4,49.9h0.9c1,0,1.7-0.7,1.7-1.7v-0.9c0-1-0.7-1.7-1.7-1.7h-0.9c-1,0-1.7,0.7-1.7,1.7v0.9
		C11.7,49.3,12.6,49.9,13.4,49.9z"/>
	<path d="M24.1,49.9H25c1,0,1.7-0.7,1.7-1.7v-0.9c0-1-0.7-1.7-1.7-1.7h-0.9c-1,0-1.7,0.7-1.7,1.7v0.9C22.3,49.3,23,49.9,24.1,49.9z"
		/>
	<path d="M34.5,49.9h0.9c1,0,1.7-0.7,1.7-1.7v-0.9c0-1-0.7-1.7-1.7-1.7h-0.9c-1,0-1.7,0.7-1.7,1.7v0.9
		C32.8,49.3,33.5,49.9,34.5,49.9z"/>
	<path d="M45.1,49.9H46c1,0,1.7-0.7,1.7-1.7v-0.9c0-1-0.7-1.7-1.7-1.7h-0.9c-1,0-1.7,0.7-1.7,1.7v0.9C43.4,49.3,44.2,49.9,45.1,49.9
		z"/>
	<path d="M13.4,61h0.9c1,0,1.7-0.7,1.7-1.7v-0.9c0-1-0.7-1.7-1.7-1.7h-0.9c-1,0-1.7,0.7-1.7,1.7v0.9C11.7,60.4,12.6,61,13.4,61z"/>
	<path d="M24.1,61H25c1,0,1.7-0.7,1.7-1.7v-0.9c0-1-0.7-1.7-1.7-1.7h-0.9c-1,0-1.7,0.7-1.7,1.7v0.9C22.3,60.4,23,61,24.1,61z"/>
	<path d="M34.5,61h0.9c1,0,1.7-0.7,1.7-1.7v-0.9c0-1-0.7-1.7-1.7-1.7h-0.9c-1,0-1.7,0.7-1.7,1.7v0.9C32.8,60.4,33.5,61,34.5,61z"/>
	<path d="M45.1,61H46c1,0,1.7-0.7,1.7-1.7v-0.9c0-1-0.7-1.7-1.7-1.7h-0.9c-1,0-1.7,0.7-1.7,1.7v0.9C43.4,60.4,44.2,61,45.1,61z"/>
	<path d="M13.4,71.6h0.9c1,0,1.7-0.7,1.7-1.7V69c0-1-0.7-1.7-1.7-1.7h-0.9c-1,0-1.7,0.7-1.7,1.7v0.9C11.7,70.9,12.6,71.6,13.4,71.6z
		"/>
	<path d="M24.1,71.6H25c1,0,1.7-0.7,1.7-1.7V69c0-1-0.7-1.7-1.7-1.7h-0.9c-1,0-1.7,0.7-1.7,1.7v0.9C22.3,70.9,23,71.6,24.1,71.6z"/>
	<path d="M34.5,71.6h0.9c1,0,1.7-0.7,1.7-1.7V69c0-1-0.7-1.7-1.7-1.7h-0.9c-1,0-1.7,0.7-1.7,1.7v0.9C32.8,70.9,33.5,71.6,34.5,71.6z
		"/>
	<path d="M45.1,71.6H46c1,0,1.7-0.7,1.7-1.7V69c0-1-0.7-1.7-1.7-1.7h-0.9c-1,0-1.7,0.7-1.7,1.7v0.9C43.4,70.9,44.2,71.6,45.1,71.6z"
		/>
	<path d="M13.4,82.7h0.9c1,0,1.7-0.7,1.7-1.7v-0.9c0-1-0.7-1.7-1.7-1.7h-0.9c-1,0-1.7,0.7-1.7,1.7V81C11.7,82,12.6,82.7,13.4,82.7z"
		/>
	<path d="M24.1,82.7H25c1,0,1.7-0.7,1.7-1.7v-0.9c0-0.9-0.7-1.7-1.7-1.7h-0.9c-1,0-1.7,0.7-1.7,1.7V81C22.3,82,23,82.7,24.1,82.7z"
		/>
	<path d="M35.6,78.4h-0.9c-1,0-1.7,0.7-1.7,1.7V81c0,1,0.7,1.7,1.7,1.7h0.9c1,0,1.7-0.7,1.7-1.7v-0.9C37.4,79.3,36.5,78.4,35.6,78.4
		z"/>
	<path d="M46.3,78.4h-0.9c-1,0-1.7,0.7-1.7,1.7V81c0,1,0.7,1.7,1.7,1.7h0.9c1,0,1.7-0.7,1.7-1.7v-0.9C48,79.3,47.1,78.4,46.3,78.4z"
		/>
	<path d="M55.7,49.9h0.9c1,0,1.7-0.7,1.7-1.7v-0.9c0-1-0.7-1.7-1.7-1.7h-0.9c-1,0-1.7,0.7-1.7,1.7v0.9C54,49.3,54.7,49.9,55.7,49.9z
		"/>
	<path d="M66.5,49.9h0.9c1,0,1.7-0.7,1.7-1.7v-0.9c0-1-0.7-1.7-1.7-1.7h-0.9c-1,0-1.7,0.7-1.7,1.7v0.9
		C64.6,49.3,65.4,49.9,66.5,49.9z"/>
	<path d="M76.8,49.9h0.9c1,0,1.7-0.7,1.7-1.7v-0.9c0-1-0.7-1.7-1.7-1.7h-0.9c-1,0-1.7,0.7-1.7,1.7v0.9
		C75.1,49.3,75.9,49.9,76.8,49.9z"/>
	<path d="M87.4,49.9h0.9c1,0,1.7-0.7,1.7-1.7v-0.9c0-1-0.7-1.7-1.7-1.7h-0.9c-1,0-1.7,0.7-1.7,1.7v0.9
		C85.7,49.3,86.4,49.9,87.4,49.9z"/>
	<path d="M55.7,61h0.9c1,0,1.7-0.7,1.7-1.7v-0.9c0-1-0.7-1.7-1.7-1.7h-0.9c-1,0-1.7,0.7-1.7,1.7v0.9C54,60.4,54.7,61,55.7,61z"/>
	<path d="M66.5,61h0.9c1,0,1.7-0.7,1.7-1.7v-0.9c0-1-0.7-1.7-1.7-1.7h-0.9c-1,0-1.7,0.7-1.7,1.7v0.9C64.6,60.4,65.4,61,66.5,61z"/>
	<path d="M76.8,61h0.9c1,0,1.7-0.7,1.7-1.7v-0.9c0-1-0.7-1.7-1.7-1.7h-0.9c-1,0-1.7,0.7-1.7,1.7v0.9C75.1,60.4,75.9,61,76.8,61z"/>
	<path d="M87.4,61h0.9c1,0,1.7-0.7,1.7-1.7v-0.9c0-1-0.7-1.7-1.7-1.7h-0.9c-1,0-1.7,0.7-1.7,1.7v0.9C85.7,60.4,86.4,61,87.4,61z"/>
	<path d="M55.7,71.6h0.9c1,0,1.7-0.7,1.7-1.7V69c0-1-0.7-1.7-1.7-1.7h-0.9c-1,0-1.7,0.7-1.7,1.7v0.9C54,70.9,54.7,71.6,55.7,71.6z"
		/>
	<path d="M66.5,71.6h0.9c1,0,1.7-0.7,1.7-1.7V69c0-1-0.7-1.7-1.7-1.7h-0.9c-1,0-1.7,0.7-1.7,1.7v0.9C64.6,70.9,65.4,71.6,66.5,71.6z
		"/>
	<path d="M76.8,71.6h0.9c1,0,1.7-0.7,1.7-1.7V69c0-1-0.7-1.7-1.7-1.7h-0.9c-1,0-1.7,0.7-1.7,1.7v0.9C75.1,70.9,75.9,71.6,76.8,71.6z
		"/>
	<path d="M87.4,71.6h0.9c1,0,1.7-0.7,1.7-1.7V69c0-1-0.7-1.7-1.7-1.7h-0.9c-1,0-1.7,0.7-1.7,1.7v0.9C85.7,70.9,86.4,71.6,87.4,71.6z
		"/>
	<path d="M56.7,78.4h-0.9c-1,0-1.7,0.7-1.7,1.7V81c0,1,0.7,1.7,1.7,1.7h0.9c1,0,1.7-0.7,1.7-1.7v-0.9C58.5,79.3,57.9,78.4,56.7,78.4
		z"/>
	<path d="M66.5,82.7h0.9c1,0,1.7-0.7,1.7-1.7v-0.9c0-1-0.7-1.7-1.7-1.7h-0.9c-1,0-1.7,0.7-1.7,1.7V81C64.6,82,65.4,82.7,66.5,82.7z"
		/>
	<path d="M96.3,24.7H52.5v-3.2c3.2-1.2,5.4-4.6,4.7-8.4c-0.6-2.8-2.9-5.1-5.7-5.7c-4.7-0.9-8.8,2.7-8.8,7.2c0,3.2,2,5.9,4.8,6.9v3.2
		H3.7c-1.4,0-2.5,1.1-2.5,2.5v63.1c0,1.4,1.1,2.5,2.5,2.5h92.7c1.4,0,2.5-1.1,2.5-2.5V27.2C98.8,25.8,97.7,24.7,96.3,24.7z M50,12.3
		c1.3,0,2.3,1,2.3,2.3s-1,2.3-2.3,2.3c-1.3,0-2.3-1-2.3-2.3S48.7,12.3,50,12.3z M93.8,87.7H6.2V41.3h87.7V87.7z M93.8,36.3H6.2v-6.6
		h87.7V36.3z"/>
</g>
</svg>
